<?xml version="1.0" encoding="utf-8"?>
<!-- Generator: Adobe Illustrator 22.0.1, SVG Export Plug-In . SVG Version: 6.00 Build 0)  -->
<svg version="1.1" id="Layer_1" xmlns="http://www.w3.org/2000/svg" xmlns:xlink="http://www.w3.org/1999/xlink" x="0px" y="0px"
	 viewBox="0 0 496.1 153.3" style="enable-background:new 0 0 496.1 153.3;" xml:space="preserve">
<style type="text/css">
	.st0{opacity:0.65;}
	.st1{fill:#FFFFFF;}
	.st2{fill:#00ADEF;}
</style>
<g>
	<g class="st0">
		<polygon points="84.7,0.8 124.7,40.9 124.7,0.8 		"/>
		<polygon points="54.7,14.9 28.7,40.9 41.3,40.9 61,21.2 		"/>
		<polygon points="52.8,0.8 12.4,0.8 12.4,40.9 46.5,6.7 		"/>
		<polygon points="85.2,40.9 108.4,40.9 96.8,29.2 		"/>
		<path d="M68.4,0.8H57.3l18.9,19.3c0.6,0.7,0.6,1.6,0,2.2L57.7,40.9h11.2l19.8-19.8L68.4,0.8z"/>
		<path d="M208.1,0.9h-23.6c-4.5,0-8.2,3.7-8.2,8.2v23.6c0,4.5,3.7,8.2,8.2,8.2h23.6c4.5,0,8.2-3.7,8.2-8.2V9.1
			C216.2,4.6,212.6,0.9,208.1,0.9z M207.7,9.4v22.9h-22.8V9.4H207.7z"/>
		<path d="M172.3,35.8c-0.5,1-1.1,1.9-1.8,2.7c-0.8,0.8-1.7,1.4-2.7,1.8c-1,0.5-2.1,0.7-3.3,0.7h-1.8l-25.1-27.3V41h-8.8V10.1
			c0-1.2,0.2-3.1,0.7-4.1s1.1-1.9,1.8-2.7c0.8-0.8,1.7-1.4,2.7-1.8c1-0.5,2.1-0.7,3.3-0.7h1.5l25.3,27.5V0.8h8.8v31.7
			C173,33.6,172.8,34.7,172.3,35.8"/>
		<path d="M258.7,19.5V9.1c0-4.5-3.7-8.2-8.2-8.2h-31h-0.7v0.7V40v0.7h0.7h7.1h0.7V40V27.7h11.5l10.9,12.9l0.2,0.3h0.3h7.7h0.7v-0.7
			v-1.8v-0.3l-0.2-0.2l-8.5-10.2h0.5C255,27.7,258.7,24,258.7,19.5z M250.1,9.5v9.6h-22.8V9.5H250.1z"/>
		<polygon points="306.1,0.9 298.4,0.9 298,0.9 297.8,1.2 284.4,17.2 271,1.2 270.8,0.9 270.4,0.9 262.7,0.9 262,0.9 262,1.6 
			262,40.1 262,40.9 262.7,40.9 269.8,40.9 270.5,40.9 270.5,40.1 270.5,13.9 283.9,29.7 284.4,30.4 285,29.7 298.3,13.9 
			298.3,40.1 298.3,40.9 299,40.9 306.1,40.9 306.9,40.9 306.9,40.1 306.9,1.6 306.9,0.9 		"/>
		<path d="M477,0.9h-30.9c-4.5,0-8.2,3.7-8.2,8.2v23.6c0,4.5,3.7,8.2,8.2,8.2H477h0.7v-0.7v-7.1v-0.7H477h-30.6v-23H477h0.7V8.7V1.6
			V0.9H477z"/>
		<polygon points="433.7,0.9 398.3,0.9 397.6,0.9 397.6,1.6 397.6,40.1 397.6,40.9 398.3,40.9 433.7,40.9 434.5,40.9 434.5,40.1 
			434.5,33.1 434.5,32.3 433.7,32.3 406.2,32.3 406.2,25.1 428.2,25.1 429,25.1 429,24.4 429,17.3 429,16.6 428.2,16.6 406.2,16.6 
			406.2,9.4 433.7,9.4 434.5,9.4 434.5,8.7 434.5,1.6 434.5,0.9 		"/>
		<path d="M341.9,0.9h-23.6c-4.5,0-8.2,3.7-8.2,8.2v31v0.7h0.7h7.1h0.7v-0.7V27.9h22.8v12.2v0.7h0.7h7.1h0.7v-0.7v-31
			C350.1,4.6,346.4,0.9,341.9,0.9z M341.5,9.4v10h-22.8v-10H341.5z"/>
		<polygon points="393.6,0.9 353.1,0.9 352.3,0.9 352.3,1.6 352.3,8.7 352.3,9.4 353.1,9.4 370,9.4 370,40.1 370,40.9 370.8,40.9 
			377.9,40.9 378.6,40.9 378.6,40.1 378.6,9.4 393.6,9.4 394.3,9.4 394.3,8.7 394.3,1.6 394.3,0.9 		"/>
		<path d="M489.4,5.2c0,2.4-1.9,4.3-4.4,4.3c-2.4,0-4.4-1.9-4.4-4.3s1.9-4.3,4.4-4.3C487.5,0.9,489.4,2.8,489.4,5.2z M481.7,5.2
			c0,1.9,1.4,3.4,3.3,3.4s3.2-1.5,3.2-3.4s-1.4-3.4-3.3-3.4C483.1,1.8,481.7,3.3,481.7,5.2z M484.4,7.4h-1V3.1
			C483.8,3,484.3,3,485,3c0.8,0,1.2,0.1,1.5,0.3c0.2,0.2,0.4,0.5,0.4,0.9c0,0.5-0.4,0.8-0.9,1v0.1c0.4,0.2,0.6,0.5,0.8,1
			c0.1,0.6,0.2,0.9,0.3,1.1H486c-0.1-0.2-0.2-0.5-0.3-1c-0.1-0.5-0.3-0.7-0.9-0.7h-0.4V7.4z M484.4,5h0.5c0.5,0,1-0.2,1-0.6
			s-0.3-0.6-0.9-0.6c-0.3,0-0.4,0-0.5,0.1V5H484.4z"/>
	</g>
	<g>
		<g>
			<g>
				<polygon class="st1" points="81.8,0.8 121.8,40.9 121.8,0.8 				"/>
				<polygon class="st1" points="51.8,14.9 25.8,40.9 38.4,40.9 58.1,21.2 				"/>
				<polygon class="st1" points="49.9,0.8 9.5,0.8 9.5,40.9 43.6,6.7 				"/>
				<polygon class="st1" points="82.3,40.9 105.5,40.9 93.9,29.2 				"/>
				<path class="st1" d="M65.5,0.8H54.4l18.9,19.3c0.6,0.7,0.6,1.6,0,2.2L54.8,40.9H66l19.8-19.8L65.5,0.8z"/>
			</g>
			<path class="st1" d="M205.2,0.9h-23.6c-4.5,0-8.2,3.7-8.2,8.2v23.6c0,4.5,3.7,8.2,8.2,8.2h23.6c4.5,0,8.2-3.7,8.2-8.2V9.1
				C213.3,4.6,209.7,0.9,205.2,0.9z M204.8,9.4v22.9H182V9.4H204.8z"/>
			<path class="st1" d="M169.4,35.8c-0.5,1-1.1,1.9-1.8,2.7c-0.8,0.8-1.7,1.4-2.7,1.8c-1,0.5-2.1,0.7-3.3,0.7h-1.8l-25.1-27.3V41
				h-8.8V10.1c0-1.2,0.2-3.1,0.7-4.1s1.1-1.9,1.8-2.7c0.8-0.8,1.7-1.4,2.7-1.8c1-0.5,2.1-0.7,3.3-0.7h1.5l25.3,27.5V0.8h8.8v31.7
				C170.1,33.6,169.9,34.7,169.4,35.8"/>
			<path class="st1" d="M255.8,19.5V9.1c0-4.5-3.7-8.2-8.2-8.2h-31h-0.7v0.7V40v0.7h0.7h7.1h0.7V40V27.7h11.5l10.9,12.9l0.2,0.3h0.3
				h7.7h0.7v-0.7v-1.8v-0.3l-0.2-0.2L247,27.7h0.5C252.1,27.7,255.8,24,255.8,19.5z M247.2,9.5v9.6h-22.8V9.5H247.2z"/>
			<polygon class="st1" points="303.2,0.9 295.5,0.9 295.1,0.9 294.9,1.2 281.5,17.2 268.1,1.2 267.9,0.9 267.5,0.9 259.8,0.9 
				259.1,0.9 259.1,1.6 259.1,40.1 259.1,40.9 259.8,40.9 266.9,40.9 267.6,40.9 267.6,40.1 267.6,13.9 281,29.7 281.5,30.4 
				282.1,29.7 295.4,13.9 295.4,40.1 295.4,40.9 296.1,40.9 303.2,40.9 304,40.9 304,40.1 304,1.6 304,0.9 			"/>
			<path class="st1" d="M474.1,0.9h-30.9c-4.5,0-8.2,3.7-8.2,8.2v23.6c0,4.5,3.7,8.2,8.2,8.2h30.9h0.7v-0.7v-7.1v-0.7h-0.7h-30.6
				v-23h30.6h0.7V8.7V1.6V0.9H474.1z"/>
			<polygon class="st1" points="430.8,0.9 395.4,0.9 394.7,0.9 394.7,1.6 394.7,40.1 394.7,40.9 395.4,40.9 430.8,40.9 431.6,40.9 
				431.6,40.1 431.6,33.1 431.6,32.3 430.8,32.3 403.3,32.3 403.3,25.1 425.3,25.1 426.1,25.1 426.1,24.4 426.1,17.3 426.1,16.6 
				425.3,16.6 403.3,16.6 403.3,9.4 430.8,9.4 431.6,9.4 431.6,8.7 431.6,1.6 431.6,0.9 			"/>
			<path class="st1" d="M339,0.9h-23.6c-4.5,0-8.2,3.7-8.2,8.2v31v0.7h0.7h7.1h0.7v-0.7V27.9h22.8v12.2v0.7h0.7h7.1h0.7v-0.7v-31
				C347.2,4.6,343.5,0.9,339,0.9z M338.6,9.4v10h-22.8v-10H338.6z"/>
			<polygon class="st1" points="390.7,0.9 350.2,0.9 349.4,0.9 349.4,1.6 349.4,8.7 349.4,9.4 350.2,9.4 367.1,9.4 367.1,40.1 
				367.1,40.9 367.9,40.9 375,40.9 375.7,40.9 375.7,40.1 375.7,9.4 390.7,9.4 391.4,9.4 391.4,8.7 391.4,1.6 391.4,0.9 			"/>
			<g>
				<path class="st1" d="M486.5,5.2c0,2.4-1.9,4.3-4.4,4.3c-2.4,0-4.4-1.9-4.4-4.3s1.9-4.3,4.4-4.3C484.6,0.9,486.5,2.8,486.5,5.2z
					 M478.8,5.2c0,1.9,1.4,3.4,3.3,3.4s3.2-1.5,3.2-3.4s-1.4-3.4-3.3-3.4C480.2,1.8,478.8,3.3,478.8,5.2z M481.5,7.4h-1V3.1
					c0.4-0.1,0.9-0.1,1.6-0.1c0.8,0,1.2,0.1,1.5,0.3c0.2,0.2,0.4,0.5,0.4,0.9c0,0.5-0.4,0.8-0.9,1v0.1c0.4,0.2,0.6,0.5,0.8,1
					c0.1,0.6,0.2,0.9,0.3,1.1h-1.1c-0.1-0.2-0.2-0.5-0.3-1c-0.1-0.5-0.3-0.7-0.9-0.7h-0.4V7.4z M481.5,5h0.5c0.5,0,1-0.2,1-0.6
					s-0.3-0.6-0.9-0.6c-0.3,0-0.4,0-0.5,0.1V5H481.5z"/>
			</g>
		</g>
	</g>
</g>
<rect x="342.6" y="50.3" class="st2" width="132.2" height="22.1"/>
<rect x="309.5" y="71.3" class="st2" width="151.5" height="22.1"/>
<path class="st1" d="M353.4,57.9h-2.5c-0.2,0-0.3-0.1-0.3-0.3v-1.4c0-0.2,0.1-0.3,0.3-0.3h7.2c0.2,0,0.3,0.1,0.3,0.3v1.4
	c0,0.2-0.1,0.3-0.3,0.3h-2.5v9.3c0,0.2-0.1,0.3-0.3,0.3h-1.5c-0.2,0-0.3-0.1-0.3-0.3V57.9z"/>
<path class="st1" d="M360.2,56.3c0-0.2,0.1-0.3,0.3-0.3h4.7c2,0,3.6,1.6,3.6,3.6c0,1.5-1,2.8-2.4,3.3l2.3,4.2c0.1,0.2,0,0.5-0.3,0.5
	h-1.7c-0.1,0-0.2-0.1-0.3-0.1l-2.2-4.4h-1.8v4.2c0,0.2-0.1,0.3-0.3,0.3h-1.5c-0.2,0-0.3-0.1-0.3-0.3V56.3z M365.1,61.2
	c0.9,0,1.6-0.8,1.6-1.7c0-0.9-0.8-1.6-1.6-1.6h-2.7v3.3H365.1z"/>
<path class="st1" d="M369.8,67.1l5.1-11.1c0.1-0.1,0.1-0.2,0.3-0.2h0.2c0.2,0,0.2,0.1,0.3,0.2l5.1,11.1c0.1,0.2,0,0.4-0.3,0.4H379
	c-0.2,0-0.4-0.1-0.5-0.3l-0.8-1.8h-4.9l-0.8,1.8c-0.1,0.2-0.2,0.3-0.5,0.3h-1.4C369.8,67.5,369.7,67.3,369.8,67.1z M376.9,63.6
	l-1.7-3.6h0l-1.6,3.6H376.9z"/>
<path class="st1" d="M382.2,56.3c0-0.2,0.1-0.3,0.3-0.3h1.5c0.2,0,0.3,0.1,0.3,0.3v11c0,0.2-0.1,0.3-0.3,0.3h-1.5
	c-0.2,0-0.3-0.1-0.3-0.3V56.3z"/>
<path class="st1" d="M387.2,56.1c0-0.2,0.1-0.3,0.3-0.3h0.2c0.1,0,0.2,0,0.3,0.1l6.8,7.2h0v-6.8c0-0.2,0.1-0.3,0.3-0.3h1.5
	c0.2,0,0.3,0.1,0.3,0.3v11.1c0,0.2-0.1,0.3-0.3,0.3h-0.2c-0.1,0-0.2,0-0.3-0.1l-6.8-7.5h0v7.1c0,0.2-0.1,0.3-0.3,0.3h-1.5
	c-0.2,0-0.3-0.1-0.3-0.3V56.1z"/>
<path class="st1" d="M403.8,56.3c0-0.2,0.1-0.3,0.3-0.3h1.5c0.2,0,0.3,0.1,0.3,0.3v4.4h5.4v-4.4c0-0.2,0.1-0.3,0.3-0.3h1.5
	c0.2,0,0.3,0.1,0.3,0.3v11c0,0.2-0.1,0.3-0.3,0.3h-1.5c-0.2,0-0.3-0.1-0.3-0.3v-4.6h-5.4v4.6c0,0.2-0.1,0.3-0.3,0.3h-1.5
	c-0.2,0-0.3-0.1-0.3-0.3V56.3z"/>
<path class="st1" d="M414.9,67.1l5.1-11.1c0-0.1,0.1-0.2,0.3-0.2h0.2c0.2,0,0.2,0.1,0.3,0.2l5.1,11.1c0.1,0.2,0,0.4-0.3,0.4h-1.4
	c-0.2,0-0.4-0.1-0.5-0.3l-0.8-1.8h-4.9l-0.8,1.8c-0.1,0.2-0.2,0.3-0.5,0.3h-1.4C415,67.5,414.8,67.3,414.9,67.1z M422.1,63.6
	l-1.7-3.6h-0.1l-1.6,3.6H422.1z"/>
<path class="st1" d="M427.4,56.3c0-0.2,0.1-0.3,0.3-0.3h4.7c2,0,3.6,1.6,3.6,3.6c0,1.5-1,2.8-2.4,3.3l2.3,4.2c0.1,0.2,0,0.5-0.3,0.5
	h-1.7c-0.1,0-0.2-0.1-0.3-0.1l-2.2-4.4h-1.8v4.2c0,0.2-0.1,0.3-0.3,0.3h-1.5c-0.2,0-0.3-0.1-0.3-0.3V56.3z M432.2,61.2
	c0.9,0,1.6-0.8,1.6-1.7c0-0.9-0.8-1.6-1.6-1.6h-2.7v3.3H432.2z"/>
<path class="st1" d="M438.3,56.3c0-0.2,0.1-0.3,0.3-0.3h3.9c3.2,0,5.8,2.6,5.8,5.8c0,3.2-2.6,5.8-5.8,5.8h-3.9
	c-0.2,0-0.3-0.1-0.3-0.3V56.3z M442.3,65.5c2.2,0,3.7-1.5,3.7-3.8c0-2.3-1.6-3.8-3.7-3.8h-1.9v7.6H442.3z"/>
<path class="st1" d="M450.5,56.3c0-0.2,0.1-0.3,0.3-0.3h6.7c0.2,0,0.3,0.1,0.3,0.3v1.4c0,0.2-0.1,0.3-0.3,0.3h-4.9v2.7h4.1
	c0.2,0,0.3,0.1,0.3,0.3v1.4c0,0.2-0.1,0.3-0.3,0.3h-4.1v2.9h4.9c0.2,0,0.3,0.1,0.3,0.3v1.4c0,0.2-0.1,0.3-0.3,0.3h-6.7
	c-0.2,0-0.3-0.1-0.3-0.3V56.3z"/>
<path class="st1" d="M460,56.3c0-0.2,0.1-0.3,0.3-0.3h4.7c2,0,3.6,1.6,3.6,3.6c0,1.5-1,2.8-2.4,3.3l2.3,4.2c0.1,0.2,0,0.5-0.3,0.5
	h-1.7c-0.1,0-0.2-0.1-0.3-0.1L464,63h-1.8v4.2c0,0.2-0.1,0.3-0.3,0.3h-1.5c-0.2,0-0.3-0.1-0.3-0.3V56.3z M464.9,61.2
	c0.9,0,1.6-0.8,1.6-1.7c0-0.9-0.8-1.6-1.6-1.6h-2.7v3.3H464.9z"/>
<path class="st1" d="M319.5,77.1c0-0.2,0.1-0.3,0.3-0.3h4.7c2,0,3.6,1.6,3.6,3.6c0,1.5-1,2.8-2.4,3.3l2.3,4.2c0.1,0.2,0,0.5-0.3,0.5
	h-1.7c-0.1,0-0.2-0.1-0.3-0.1l-2.2-4.4h-1.8v4.2c0,0.2-0.1,0.3-0.3,0.3h-1.5c-0.2,0-0.3-0.1-0.3-0.3V77.1z M324.3,82.1
	c0.9,0,1.6-0.8,1.6-1.7c0-0.9-0.8-1.6-1.6-1.6h-2.7v3.3H324.3z"/>
<path class="st1" d="M330.4,77.1c0-0.2,0.1-0.3,0.3-0.3h6.7c0.2,0,0.3,0.1,0.3,0.3v1.4c0,0.2-0.1,0.3-0.3,0.3h-4.9v2.7h4.1
	c0.2,0,0.3,0.1,0.3,0.3v1.4c0,0.2-0.1,0.3-0.3,0.3h-4.1v2.9h4.9c0.2,0,0.3,0.1,0.3,0.3v1.4c0,0.2-0.1,0.3-0.3,0.3h-6.7
	c-0.2,0-0.3-0.1-0.3-0.3V77.1z"/>
<path class="st1" d="M345,76.7c1.7,0,2.9,0.5,4,1.5c0.1,0.1,0.1,0.3,0,0.5l-1,1c-0.1,0.1-0.3,0.1-0.4,0c-0.7-0.6-1.6-1-2.5-1
	c-2.1,0-3.7,1.8-3.7,3.9c0,2.1,1.6,3.8,3.7,3.8c1,0,1.8-0.4,2.5-0.9c0.1-0.1,0.3-0.1,0.4,0l1,1.1c0.1,0.1,0.1,0.3,0,0.4
	c-1.1,1.1-2.5,1.6-4,1.6c-3.3,0-6-2.6-6-5.9C339.1,79.3,341.7,76.7,345,76.7z"/>
<path class="st1" d="M356.1,76.7c3.3,0,6,2.7,6,6c0,3.3-2.6,5.9-6,5.9c-3.3,0-5.9-2.6-5.9-5.9C350.2,79.3,352.8,76.7,356.1,76.7z
	 M356.1,86.4c2.1,0,3.8-1.7,3.8-3.8c0-2.1-1.7-3.8-3.8-3.8c-2.1,0-3.8,1.7-3.8,3.8C352.4,84.7,354.1,86.4,356.1,86.4z"/>
<path class="st1" d="M362.6,77.2c-0.1-0.2,0-0.4,0.3-0.4h1.7c0.1,0,0.2,0.1,0.3,0.2l3.2,7.1h0.1l3.2-7.1c0-0.1,0.1-0.2,0.3-0.2h1.7
	c0.2,0,0.4,0.2,0.3,0.4l-5.1,11.1c0,0.1-0.1,0.2-0.3,0.2H368c-0.1,0-0.2-0.1-0.3-0.2L362.6,77.2z"/>
<path class="st1" d="M375,77.1c0-0.2,0.1-0.3,0.3-0.3h6.7c0.2,0,0.3,0.1,0.3,0.3v1.4c0,0.2-0.1,0.3-0.3,0.3h-4.9v2.7h4.1
	c0.2,0,0.3,0.1,0.3,0.3v1.4c0,0.2-0.1,0.3-0.3,0.3h-4.1v2.9h4.9c0.2,0,0.3,0.1,0.3,0.3v1.4c0,0.2-0.1,0.3-0.3,0.3h-6.7
	c-0.2,0-0.3-0.1-0.3-0.3V77.1z"/>
<path class="st1" d="M384.5,77.1c0-0.2,0.1-0.3,0.3-0.3h4.7c2,0,3.6,1.6,3.6,3.6c0,1.5-1,2.8-2.4,3.3l2.3,4.2c0.1,0.2,0,0.5-0.3,0.5
	H391c-0.1,0-0.2-0.1-0.3-0.1l-2.2-4.4h-1.8v4.2c0,0.2-0.1,0.3-0.3,0.3h-1.5c-0.2,0-0.3-0.1-0.3-0.3V77.1z M389.4,82.1
	c0.9,0,1.6-0.8,1.6-1.7c0-0.9-0.8-1.6-1.6-1.6h-2.7v3.3H389.4z"/>
<path class="st1" d="M399.4,77.1c0-0.2,0.1-0.3,0.3-0.3h6.7c0.2,0,0.3,0.1,0.3,0.3v1.4c0,0.2-0.1,0.3-0.3,0.3h-4.9v3.1h4.1
	c0.2,0,0.3,0.1,0.3,0.3v1.4c0,0.2-0.1,0.3-0.3,0.3h-4.1v4.2c0,0.2-0.1,0.3-0.3,0.3h-1.5c-0.2,0-0.3-0.1-0.3-0.3V77.1z"/>
<path class="st1" d="M406.5,88l5.1-11.1c0.1-0.1,0.1-0.2,0.3-0.2h0.2c0.2,0,0.2,0.1,0.3,0.2l5.1,11.1c0.1,0.2,0,0.4-0.3,0.4h-1.4
	c-0.2,0-0.4-0.1-0.5-0.3l-0.8-1.8h-4.9l-0.8,1.8c-0.1,0.2-0.2,0.3-0.5,0.3h-1.4C406.5,88.4,406.4,88.2,406.5,88z M413.6,84.4
	l-1.7-3.6h0l-1.6,3.6H413.6z"/>
<path class="st1" d="M418.4,87.3c-0.2-0.1-0.2-0.2-0.1-0.5l0.6-1c0.1-0.2,0.4-0.2,0.6-0.1c0.7,0.5,1.4,1,2.5,1
	c0.9,0,1.5-0.6,1.5-1.3c0-0.8-0.7-1.4-2.1-2c-1.6-0.6-3.1-1.6-3.1-3.6c0-1.5,1.1-3.2,3.7-3.2c1.7,0,3,0.9,3.3,1.1
	c0.2,0.1,0.2,0.4,0.1,0.5l-0.6,0.9c-0.1,0.2-0.4,0.3-0.6,0.2c-0.7-0.4-1.4-0.9-2.3-0.9c-0.9,0-1.5,0.5-1.5,1.2c0,0.8,0.6,1.3,2,1.9
	c1.6,0.6,3.5,1.6,3.5,3.7c0,1.7-1.5,3.3-3.8,3.3C420,88.6,418.9,87.7,418.4,87.3z"/>
<path class="st1" d="M429.8,78.8h-2.5c-0.2,0-0.3-0.1-0.3-0.3v-1.4c0-0.2,0.1-0.3,0.3-0.3h7.2c0.2,0,0.3,0.1,0.3,0.3v1.4
	c0,0.2-0.1,0.3-0.3,0.3H432v9.3c0,0.2-0.1,0.3-0.3,0.3h-1.5c-0.2,0-0.3-0.1-0.3-0.3V78.8z"/>
<path class="st1" d="M436.7,77.1c0-0.2,0.1-0.3,0.3-0.3h6.7c0.2,0,0.3,0.1,0.3,0.3v1.4c0,0.2-0.1,0.3-0.3,0.3h-4.9v2.7h4.1
	c0.2,0,0.3,0.1,0.3,0.3v1.4c0,0.2-0.1,0.3-0.3,0.3h-4.1v2.9h4.9c0.2,0,0.3,0.1,0.3,0.3v1.4c0,0.2-0.1,0.3-0.3,0.3H437
	c-0.2,0-0.3-0.1-0.3-0.3V77.1z"/>
<path class="st1" d="M446.2,77.1c0-0.2,0.1-0.3,0.3-0.3h4.7c2,0,3.6,1.6,3.6,3.6c0,1.5-1,2.8-2.4,3.3l2.3,4.2c0.1,0.2,0,0.5-0.3,0.5
	h-1.7c-0.1,0-0.2-0.1-0.3-0.1l-2.2-4.4h-1.8v4.2c0,0.2-0.1,0.3-0.3,0.3h-1.5c-0.2,0-0.3-0.1-0.3-0.3V77.1z M451.1,82.1
	c0.9,0,1.6-0.8,1.6-1.7c0-0.9-0.8-1.6-1.6-1.6h-2.7v3.3H451.1z"/>
</svg>
